<?xml version="1.0" encoding="UTF-8" standalone="no"?>
<!-- Created with Inkscape (http://www.inkscape.org/) -->

<svg
   xmlns:dc="http://purl.org/dc/elements/1.1/"
   xmlns:cc="http://creativecommons.org/ns#"
   xmlns:rdf="http://www.w3.org/1999/02/22-rdf-syntax-ns#"
   xmlns:svg="http://www.w3.org/2000/svg"
   xmlns="http://www.w3.org/2000/svg"
   xmlns:sodipodi="http://sodipodi.sourceforge.net/DTD/sodipodi-0.dtd"
   xmlns:inkscape="http://www.inkscape.org/namespaces/inkscape"
   width="1535"
   height="1535"
   id="svg2"
   version="1.1"
   inkscape:version="0.48.4 r9939"
   sodipodi:docname="salamander_rosace_square.svg"
   inkscape:export-filename="/home/nico/Desktop/salamander_rosace.png"
   inkscape:export-xdpi="85"
   inkscape:export-ydpi="85">
  <defs
     id="defs4" />
  <sodipodi:namedview
     id="base"
     pagecolor="#ffffff"
     bordercolor="#666666"
     borderopacity="1.0"
     inkscape:pageopacity="0"
     inkscape:pageshadow="2"
     inkscape:zoom="0.41790011"
     inkscape:cx="1040.0224"
     inkscape:cy="968.69121"
     inkscape:document-units="px"
     inkscape:current-layer="layer1"
     showgrid="false"
     inkscape:window-width="1855"
     inkscape:window-height="1056"
     inkscape:window-x="1985"
     inkscape:window-y="24"
     inkscape:window-maximized="1" />
  <metadata
     id="metadata7">
    <rdf:RDF>
      <cc:Work
         rdf:about="">
        <dc:format>image/svg+xml</dc:format>
        <dc:type
           rdf:resource="http://purl.org/dc/dcmitype/StillImage" />
        <dc:title></dc:title>
      </cc:Work>
    </rdf:RDF>
  </metadata>
  <g
     inkscape:label="Layer 1"
     inkscape:groupmode="layer"
     id="layer1"
     transform="translate(0,482.63782)">
    <path
       sodipodi:type="arc"
       style="fill:#ea6c38;fill-opacity:1;fill-rule:evenodd;stroke:none"
       id="path3096"
       sodipodi:cx="552.85712"
       sodipodi:cy="1490"
       sodipodi:rx="81.428574"
       sodipodi:ry="81.428574"
       d="m 634.28569,1490 a 81.428574,81.428574 0 1 1 -162.85715,0 81.428574,81.428574 0 1 1 162.85715,0 z"
       transform="matrix(1.1155979,0,0,1.1094696,-196.57645,-1294.3014)" />
    <path
       style="fill:#3c393b;fill-opacity:1;stroke:none"
       d="m 321.65438,279.17085 c 24.47081,-29.3069 58.01783,-46.5958 98.50098,-46.8086 40.48315,-0.2128 75.85166,19.459 98.03808,46.8086 l 93.49418,-54.2686 c -46.17841,-66.0981 -119.42258,-100.1354 -191.56449,-100.0205 -72.14191,0.1149 -145.3859,33.0279 -192.32422,100.1406 z"
       id="path3882"
       inkscape:connector-curvature="0"
       sodipodi:nodetypes="czcczcc" />
    <path
       style="fill:#8a8383;fill-opacity:1;stroke:none"
       d="m 277.24423,589.49115 c 29.5411,18.9594 80.28006,40.4462 141.34765,40.4766 61.06759,0.03 110.96629,-19.4694 144.01563,-40.4727 l 83.69541,114.9347 C 579.49438,746.8429 505.78893,771.849 418.12313,771.8545 c -87.6658,0.01 -161.85622,-27.2156 -224.48047,-67.31645 z"
       id="path3884"
       inkscape:connector-curvature="0"
       sodipodi:nodetypes="czcczcc" />
    <path
       sodipodi:nodetypes="czcczcc"
       inkscape:connector-curvature="0"
       id="path3905"
       d="m 539.39751,316.65016 c 12.96366,35.91182 10.97216,73.59925 -9.26271,108.6632 -20.23487,35.06395 -55.06013,55.68222 -89.86636,61.04547 l -0.29581,108.10252 c 80.36592,-6.53628 146.69905,-52.61405 182.9863,-114.96551 36.28724,-62.35146 44.80964,-142.19704 10.53324,-216.57747 z"
       style="fill:#3c393b;fill-opacity:1;stroke:none" />
    <path
       style="fill:#3c393b;fill-opacity:1;stroke:none"
       d="m 400.06159,484.49726 c -37.6165,-6.53566 -69.36438,-26.94107 -89.79324,-61.89235 -20.42886,-34.95128 -21.08031,-75.41716 -8.49089,-108.30704 l -93.7497,-53.82599 c -34.14716,73.04365 -26.99535,153.493 9.18048,215.90918 36.17581,62.41617 101.30532,109.38524 182.89639,116.47166 z"
       id="path3907"
       inkscape:connector-curvature="0"
       sodipodi:nodetypes="czcczcc" />
    <path
       sodipodi:nodetypes="czcczcc"
       inkscape:connector-curvature="0"
       id="path3917"
       d="M 673.1646,255.24701 C 660.47017,222.52107 632.13893,175.26151 582.81891,139.25054 533.49868,103.23991 481.6936,89.58921 442.61533,87.08268 l 0.11022,-142.17907 c 78.96965,5.10294 153.25375,28.33366 224.08426,79.98964 70.83302,51.65236 114.72947,117.36807 141.69418,186.67016 z"
       style="fill:#8a8383;fill-opacity:1;stroke:none" />
    <path
       style="fill:#8a8383;fill-opacity:1;stroke:none"
       d="m 402.02275,87.61502 c -35.05653,1.782 -88.81991,13.84947 -138.49033,49.37553 -49.6702,35.52638 -78.89007,80.42968 -93.5346,116.74682 L 35.037147,209.01015 C 64.666733,135.63208 110.03762,72.39222 181.31356,21.35269 252.58689,-29.69049 328.759,-50.74424 403.02227,-54.59615 z"
       id="path3919"
       inkscape:connector-curvature="0"
       sodipodi:nodetypes="czcczcc" />
    <path
       sodipodi:nodetypes="czcczcc"
       inkscape:connector-curvature="0"
       id="path3921"
       d="m 159.65917,291.6449 c -9.23595,33.86493 -14.53104,88.71097 3.7393,146.98141 18.27072,58.27032 51.8266,100.03289 81.76819,125.26972 L 160.59352,678.18641 C 100.10975,627.15733 54.166382,564.33213 27.891426,480.6965 1.6121912,397.06221 5.3549787,318.12272 24.847213,246.35975 z"
       style="fill:#8a8383;fill-opacity:1;stroke:none" />
    <path
       style="fill:#8a8383;fill-opacity:1;stroke:none"
       d="m 593.41638,561.52386 c 27.93513,-21.25473 65.50922,-61.55742 86.46588,-118.91656 20.95633,-57.35927 19.73822,-110.91879 11.33295,-149.16465 l 136.65742,-39.23851 c 16.94905,77.29796 15.18183,155.1097 -14.85652,237.46865 -30.03401,82.36047 -81.03628,142.72789 -140.17033,187.81711 z"
       id="path3923"
       inkscape:connector-curvature="0"
       sodipodi:nodetypes="czcczcc" />
    <g
       transform="translate(213.19112,-266.67553)"
       id="layer1-7"
       inkscape:label="Layer 1">
      <path
         sodipodi:nodetypes="zzzzzzzzzzczzzzzzzzzzzzzczzzzzzzzzzzzzzzzzzzzzzzzzzzzzzzzzzzzzsszzzzzzzzzzzzzzzzzzzzzzzzzzzzzzzzzzzzzzzzzzzzzzzzzzzzzzzzzzzzzzzzzzzzzzzzzzzzzzzzzzzzzzzzzzzzzzzzzzzzzzzzzzzzzzzzzzzzzzzzzzzzzzzzzzzzzzzzzzzzzzzzzzzzzzzzzzzzzzzzzzzzzzzzzzzzzzzzzzzzzzzzzzzzzzzzzzzzzzzzzzzzzzzzzzzzzzzzzzzzzzzzzzzzzzzzzzzzzzzzzzzzzzzzzzzzzzzzzzzzzzzzzzzzzzczzzzzzzzzzzzzz"
         transform="translate(0,37.362183)"
         inkscape:connector-curvature="0"
         id="path3050"
         d="m 1304.329,911.71201 c -6.3935,0.58155 -9.7589,-1.79033 -23.3884,-3.78946 -13.6295,-1.99913 -26.2626,-2.87306 -40.1887,-4.76327 -13.9261,-1.89021 -30.4139,-3.77455 -42.3573,-4.55772 -11.9434,-0.78317 -16.1665,-1.0601 -25.2624,-1.65655 -9.0959,-0.59645 -17.6214,-1.1555 -29.3129,-1.92215 -11.6915,-0.76665 -26.6609,-2.04728 -40.8359,-2.67777 -14.175,-0.63049 -30.1566,-0.70637 -44.1982,-1.03527 -14.0416,-0.3289 -22.7138,-2.2678 -40.0512,-0.93814 -17.3374,1.32966 -42.72131,2.67797 -58.29141,5.61663 -15.5701,2.93866 -53.80102,12.94624 -77.46746,22.82523 -14.19575,5.89485 -34.49875,14.32575 -47.0234,19.52666 -12.52465,5.20091 -18.43696,7.65602 -28.12451,11.67882 -9.68755,4.0228 -17.52225,7.44381 -30.00079,12.45796 -12.47854,5.01415 -28.99208,11.95932 -44.93298,17.45707 -15.9409,5.49775 -38.05583,12.18695 -50.70141,15.33187 -12.64558,3.14492 -16.74559,3.47206 -24.74351,4.85758 -7.99792,1.3855 -16.03304,2.6775 -23.22549,3.4915 -7.19245,0.814 -9.86312,1.1739 -19.88589,1.518 -10.02277,0.3441 -29.97805,0.21 -40.22716,-0.3036 -10.24911,-0.5136 -10.6695,-0.5109 -21.25209,-1.9735 -10.58259,-1.4626 -28.8809,-4.53557 -42.04878,-7.74178 -13.16788,-3.20621 -24.76205,-7.0804 -36.88755,-11.23325 -12.1255,-4.15285 -26.21288,-9.58202 -35.82495,-13.66206 -9.61207,-4.08004 -22.01109,-10.32244 -22.01109,-10.32244 0,0 -14.46294,-6.93164 -21.55569,-10.92964 -7.09275,-3.998 -14.9921,-9.10647 -20.94849,-13.05486 -5.95639,-3.94839 -9.59828,-6.46512 -14.87646,-10.47424 -5.27818,-4.00912 -11.20743,-9.03152 -16.69807,-13.66206 -5.49064,-4.63054 -11.04915,-9.79708 -16.24267,-14.11746 -5.19352,-4.32038 -9.93207,-8.25252 -14.87646,-11.84045 -4.94439,-3.58793 -10.98921,-7.49872 -14.72466,-9.71524 -3.73545,-2.21652 -4.85156,-2.80398 -7.43823,-3.94681 -2.58667,-1.14283 -4.78621,-2.22778 -8.04543,-2.88422 -3.25922,-0.65644 -8.18695,-0.98986 -11.38505,-0.6072 -3.1981,0.38266 -5.49482,1.46084 -7.59003,2.27701 -2.09521,0.81617 -3.35578,1.44357 -5.00942,2.42881 -1.65364,0.98524 -2.98093,1.78084 -4.85762,3.49142 -1.87669,1.71058 -3.35976,3.29796 -6.07203,6.98282 -2.71227,3.68486 -6.59829,10.14054 -9.56344,15.48367 -2.96515,5.34313 -5.33283,10.5775 -8.19723,16.54627 -2.8644,5.96877 -6.21874,13.85095 -8.95624,19.27868 -2.7375,5.42773 -5.28896,9.90481 -7.28643,13.35845 -1.99747,3.45364 -3.1442,5.37242 -4.55402,7.43823 -1.40982,2.06581 -2.35665,3.20915 -3.79501,5.00943 -1.43836,1.80028 -2.17577,2.90525 -4.85762,5.76842 -2.68185,2.86317 -8.33776,8.28266 -11.53685,11.08145 -3.19909,2.79879 -5.09108,4.48588 -7.43823,5.92022 -2.34715,1.43434 -4.14307,2.89581 -6.52743,4.09862 -2.38436,1.2028 -4.80434,2.15003 -7.74183,3.03601 -2.93749,0.88598 -5.59831,1.71258 -9.86704,2.12521 -4.26873,0.41263 -10.67614,0.32999 -15.63547,-0.3036 -4.95933,-0.63359 -8.63283,-1.15064 -13.96566,-3.33962 -5.33283,-2.18898 -12.54,-6.7388 -17.30527,-10.47424 -4.76527,-3.73544 -7.73783,-7.08399 -11.385046,-11.38505 -3.64722,-4.30106 -7.478322,-9.32487 -10.322443,-14.42106 -2.844121,-5.09619 -5.242945,-11.46704 -6.679228,-15.93906 -1.436283,-4.47202 -1.781474,-6.80185 -2.42881,-10.62605 -0.647336,-3.8242 -1.274264,-8.28277 -1.366206,-12.29585 -0.09194,-4.01308 0.179076,-7.77858 0.759004,-11.68865 0.579928,-3.91007 1.254805,-7.92814 2.732411,-11.68865 1.477606,-3.76051 3.397339,-6.80947 6.072025,-10.62604 2.674686,-3.81657 6.424223,-8.32657 10.170643,-11.99225 2.468404,-2.41521 5.17528,-4.60689 8.04543,-6.52743 4.40342,-2.94651 10.02097,-5.86521 13.96566,-7.59003 3.94469,-1.72482 4.89633,-1.92539 9.41164,-3.18781 4.51531,-1.26242 11.53373,-2.82236 17.76067,-3.94682 6.22694,-1.12446 13.89072,-1.6852 19.58229,-2.73241 5.69157,-1.04721 10.17126,-2.29922 14.57286,-3.33961 4.4016,-1.04039 8.16822,-1.72992 11.84045,-2.88422 3.67223,-1.1543 7.39785,-2.64272 10.17064,-3.94681 2.77279,-1.30409 4.90521,-2.47665 6.52742,-3.64322 1.62221,-1.16657 2.182,-1.31643 3.33962,-3.03601 1.15762,-1.71958 2.24578,-4.84698 2.73241,-7.43823 0.48663,-2.59125 0.63814,-5.80769 0.1518,-7.89363 -0.48634,-2.08594 -0.91338,-3.05991 -1.89751,-4.93352 -0.98413,-1.87361 -2.49236,-3.90867 -4.02271,-6.29973 -1.53035,-2.39106 -3.60937,-5.74796 -5.16123,-8.04543 -1.55186,-2.29747 -2.74904,-3.64475 -4.09861,-5.76843 -1.34957,-2.12368 -1.58352,-2.62439 -3.94682,-6.98283 -2.3633,-4.35844 -7.0154,-13.25256 -10.01884,-19.27868 -3.00344,-6.02612 -5.19539,-10.18167 -8.04543,-16.84987 -2.85004,-6.6682 -6.5085,-16.6592 -8.80444,-23.22549 -2.29594,-6.56629 -3.44551,-10.07184 -5.16122,-16.09087 -1.71571,-6.01903 -3.49367,-12.74999 -5.00942,-20.03768 -1.51575,-7.28769 -3.03958,-16.48627 -3.94682,-23.6809 -0.90724,-7.19463 -1.15621,-9.18413 -1.66981,-19.43048 -0.5136,-10.24635 -1.35688,-29.90355 -0.6072,-42.04878 0.74968,-12.14523 2.96156,-22.6748 4.25042,-30.66373 1.28886,-7.98893 1.68181,-10.36137 3.18781,-17.30527 1.506,-6.9439 4.25121,-17.53834 6.07203,-24.2881 1.82082,-6.74976 2.71741,-9.58542 4.70582,-16.24267 1.98841,-6.65725 4.27808,-14.71222 7.28643,-23.68089 3.00835,-8.96867 7.90633,-21.91436 10.92964,-30.05653 3.02331,-8.14217 5.52423,-14.0176 7.13463,-18.82328 1.6104,-4.80568 2.1097,-6.90306 2.88421,-9.86704 0.77451,-2.96398 1.40258,-4.21432 1.82161,-7.89363 0.41903,-3.67931 0.51837,-10.5614 0,-14.11746 -0.51837,-3.55606 -1.19549,-4.6956 -2.12521,-7.13463 -0.92972,-2.43903 -2.18005,-5.23531 -3.49141,-7.43823 -1.31136,-2.20292 -1.85875,-2.94656 -4.25042,-5.76842 -2.39167,-2.82186 -6.89818,-7.72508 -10.47424,-10.77785 -3.57606,-3.05277 -7.05452,-5.23374 -10.77785,-7.59003 -3.72333,-2.35629 -7.36329,-4.41456 -11.53685,-6.52743 -4.17356,-2.11287 -8.60412,-4.03705 -13.51025,-6.07202 -4.90613,-2.03497 -10.12219,-4.03504 -15.93907,-6.07203 -5.81688,-2.03699 -13.53438,-4.35521 -18.97508,-6.07202 -5.4407,-1.71681 -7.99848,-2.56667 -13.662054,-4.25042 -5.663571,-1.68375 -15.092647,-4.06924 -20.341284,-5.76843 -5.248637,-1.69919 -7.792978,-2.64304 -11.233247,-4.09861 -3.440269,-1.45557 -6.05004,-2.31869 -9.411639,-4.55402 -3.361599,-2.23533 -7.133946,-5.9616 -10.322443,-9.10804 -3.188497,-3.14644 -6.135431,-5.98586 -8.804437,-9.71524 -2.669006,-3.72938 -4.858815,-7.76435 -6.982829,-12.59945 -2.124014,-4.8351 -4.520573,-11.80773 -5.464822,-16.39447 -0.944249,-4.58674 -0.91295,-7.19764 -0.910804,-10.77785 0.0021,-3.58021 0.07161,-6.45992 0.910804,-10.62604 0.839197,-4.16612 3.002449,-10.07545 4.554019,-14.11746 1.55157,-4.04201 2.633369,-6.83239 4.554019,-10.17064 1.92065,-3.33825 4.091396,-6.36248 6.982829,-9.71524 2.891433,-3.35276 7.351191,-7.49386 10.474243,-10.17064 3.123052,-2.67678 5.231547,-4.22081 8.045434,-6.07203 2.813887,-1.85122 5.460768,-3.51004 8.804436,-5.00942 3.343668,-1.49938 6.828743,-2.68399 11.233247,-3.79502 4.404504,-1.11103 11.380761,-2.33789 15.180063,-2.58061 3.799302,-0.24272 4.419411,0.006 7.438235,0.30361 3.01882,0.29781 6.90865,0.53515 10.62604,1.6698 3.71739,1.13465 7.94702,3.50171 11.38505,5.31302 3.43803,1.81131 6.25705,3.31379 9.25984,5.46483 3.00279,2.15104 5.6579,4.661 8.65263,7.43823 2.99473,2.77723 6.14527,5.33321 9.25984,9.25984 3.11457,3.92663 5.69023,8.1526 8.95624,14.42106 3.26601,6.26846 7.5978,17.10078 10.01884,23.37729 2.42104,6.27651 3.40717,10.07206 4.85762,14.11746 1.45045,4.0454 1.87911,6.20046 3.79502,10.17064 1.91591,3.97018 5.30843,9.44432 8.04543,13.35846 2.737,3.91414 5.56132,7.03622 8.19723,10.17064 2.63591,3.13442 4.72034,6.00145 7.59003,8.65264 2.86969,2.65119 5.94851,4.49887 9.56344,7.13463 3.61493,2.63576 8.91953,6.73335 12.14405,8.65263 3.22452,1.91928 4.94373,2.55635 6.83103,3.33962 1.8873,0.78327 1.54849,0.98726 4.40222,1.518 2.85373,0.53074 9.41395,1.41998 12.75125,0.45541 3.3373,-0.96457 4.70094,-2.86669 6.67923,-4.55402 1.97829,-1.68733 3.82095,-3.50636 5.16122,-5.46483 1.34027,-1.95847 2.52958,-3.71932 3.64322,-6.07202 1.11365,-2.3527 2.02157,-5.21223 3.03601,-8.04543 1.01444,-2.8332 1.80529,-5.08977 3.03601,-8.95624 1.23072,-3.86647 3.09148,-9.58202 4.25042,-14.26926 1.15894,-4.68724 1.87294,-9.33553 2.73241,-13.81386 0.85947,-4.47833 1.5134,-6.71079 2.42881,-13.05485 0.91541,-6.34406 1.77049,-17.25473 2.58061,-25.04711 0.81012,-7.79238 1.44224,-13.76324 2.27701,-21.70749 0.83477,-7.94425 1.54432,-17.90891 2.73241,-25.9579 1.18809,-8.04899 2.42597,-14.23403 4.25042,-22.3147 1.82445,-8.08067 4.51674,-18.44917 6.83103,-26.10971 2.31429,-7.66054 4.15291,-13.24515 6.83103,-19.88588 2.67812,-6.64073 5.26,-12.16107 9.25984,-19.88588 3.99984,-7.724809 10.52795,-19.654031 15.02826,-26.261511 4.50031,-6.60748 7.38561,-9.361664 11.08145,-13.813857 3.69584,-4.452193 7.56244,-9.225455 11.08144,-12.903054 3.519,-3.677599 5.91045,-6.079545 9.86704,-9.259838 3.95659,-3.180293 8.41387,-6.318684 13.96566,-9.56344 5.55179,-3.244756 13.77217,-7.433678 19.43048,-9.56344 5.65831,-2.129762 10.68831,-3.00867 14.11746,-3.795016 3.42915,-0.786346 2.07462,-0.808435 6.37563,-1.214405 4.30101,-0.40597 14.873,-0.434242 19.43048,0 4.55748,0.434242 3.79838,0.525497 7.89363,1.518007 4.09525,0.99251 11.666,3.102556 16.54627,4.85762 4.88027,1.755064 7.86362,3.024872 12.75125,5.464823 4.88763,2.439951 12.22721,6.717331 16.39447,9.411639 4.16726,2.694308 5.5828,3.90481 8.80444,6.375626 3.22164,2.470816 7.39426,5.646789 10.47424,8.500836 3.07998,2.854047 4.39578,3.863056 8.04543,8.500835 3.64965,4.637779 9.68882,13.15029 12.90306,19.885883 3.21424,6.735593 4.92582,13.512181 6.52743,20.037682 1.60161,6.5255 2.65738,12.32316 3.18781,18.97508 0.53043,6.65192 0.57881,12.18304 -0.1518,20.79669 -0.73061,8.61365 -3.09823,22.32342 -5.00942,30.66372 -1.91119,8.3403 -3.79832,13.89768 -5.76843,19.43048 -1.97011,5.5328 -3.34048,8.68407 -5.76842,13.81386 -2.42794,5.12979 -6.02156,11.87401 -8.95624,16.84987 -2.93468,4.97586 -5.56561,8.75266 -8.50083,13.05486 -2.93522,4.3022 -4.31511,6.9872 -9.10804,12.75125 -4.79293,5.76405 -15.37262,15.99913 -20.34129,21.10029 -4.96867,5.10116 -6.63093,6.97682 -9.41163,9.56344 -2.7807,2.58662 -3.7642,3.36287 -7.13463,6.07202 -3.37043,2.70915 -8.36306,6.15926 -13.20666,10.01884 -4.8436,3.85958 -11.0786,9.31373 -15.78727,13.20666 -4.70867,3.89293 -8.81134,7.0744 -12.44765,10.17064 -3.63631,3.09624 -5.00175,4.38527 -9.41164,8.34904 -4.40989,3.96377 -12.92562,10.87028 -17.00167,15.48366 -4.07605,4.61338 -6.09805,7.9962 -8.04543,11.38505 -1.94738,3.38885 -2.92501,6.19036 -3.94682,8.65263 -1.02181,2.46227 -1.61497,2.52228 -2.27701,6.07203 -0.66204,3.54975 -0.96665,10.68883 -0.1518,15.18006 0.81485,4.49123 2.34969,7.4702 4.40222,11.38505 2.05253,3.91485 5.21003,7.99184 8.04544,11.84045 2.83541,3.84861 6.04255,8.22337 8.95623,11.23325 2.91368,3.00988 5.76869,5.15967 8.19724,6.98282 2.42855,1.82315 4.45135,3.14494 6.22382,4.09862 1.77247,0.95368 2.2887,1.37707 4.25042,1.82161 1.96172,0.44454 5.15791,0.9512 7.43823,0.3036 2.28032,-0.6476 3.4365,-2.07461 5.61662,-3.79502 2.18012,-1.72041 5.35746,-4.48977 7.28643,-6.67922 1.92897,-2.18945 3.03608,-4.12156 4.40222,-6.22383 1.36614,-2.10227 2.78301,-3.98169 3.79502,-6.37563 1.01201,-2.39394 1.65591,-5.37878 2.12521,-7.89363 0.4693,-2.51485 0.34907,0.0205 0.759,-7.13463 0.40993,-7.15512 -0.29273,-27.90845 0.3036,-35.82495 0.59633,-7.9165 0.5657,-8.37116 1.66981,-11.68865 1.10411,-3.31749 2.25236,-4.83035 4.40222,-8.04543 2.14986,-3.21508 5.77069,-7.90613 8.80443,-10.92964 3.03374,-3.02351 5.23391,-4.7153 9.10804,-7.28644 3.87413,-2.57114 9.72548,-5.82803 14.26926,-7.74183 4.54378,-1.9138 9.39246,-3.11503 12.75125,-3.94681 3.35879,-0.83178 3.18258,-1.00294 7.28643,-1.36621 4.10385,-0.36327 11.72264,-0.60469 17.30528,0.1518 5.58264,0.75649 11.04778,2.50028 15.93906,4.25042 4.89128,1.75014 7.69251,2.19623 13.35846,6.07202 5.66595,3.87579 14.6401,12.65461 18.97508,18.51968 4.33498,5.86507 6.15365,10.04566 7.89363,15.33186 1.73998,5.2862 2.12993,11.54896 2.58061,15.93907 0.45068,4.39011 0.64842,5.89947 0.4554,10.32244 -0.19302,4.42297 -1.36994,12.07553 -2.12521,16.09087 -0.75527,4.01534 -0.88506,4.70456 -1.9734,8.04543 -1.08834,3.34087 -3.02516,8.53092 -4.85762,11.84045 -1.83246,3.30953 -3.99756,5.85849 -5.76843,8.04544 -1.77087,2.18695 -2.1851,3.04574 -4.70582,5.16122 -2.52072,2.11548 -6.89097,4.8899 -10.77784,6.83103 -3.88687,1.94113 -7.7438,3.18754 -12.44765,4.70582 -4.70385,1.51828 -10.34305,3.05433 -15.78727,4.25041 -5.44422,1.19608 -11.81287,2.10992 -16.84987,2.88422 -5.037,0.7743 -7.84473,0.81078 -13.25112,1.39224 -5.40639,0.58147 -7.58501,0.94562 -10.70418,1.4183 -3.11917,0.47268 -6.02642,1.1189 -8.07463,2.04708 -2.04821,0.92818 -2.38508,1.96263 -5.00942,4.55402 -2.62434,2.59139 -6.28756,6.94256 -10.47425,11.23324 -4.18669,4.29068 -11.13591,11.5101 -14.72466,14.42106 -3.58875,2.91096 -3.81059,2.82655 -5.92022,3.94682 -2.10963,1.12027 -4.39324,2.02229 -6.67923,2.73241 -2.28599,0.71012 -3.43194,1.15559 -6.98283,1.51801 -3.55089,0.36242 -10.24293,0.11655 -14.26926,-0.1518 -4.02633,-0.26835 -4.64727,-0.44937 -9.86704,-1.21441 -5.21977,-0.76504 -15.50398,-3.14468 -21.40389,-3.64321 -5.89991,-0.49853 -9.28218,-0.8426 -12.09643,0.10734 -2.81425,0.94994 -3.99451,1.44966 -4.90524,2.32147 -0.91073,0.87181 -1.56276,1.71962 -2.27701,2.73241 -0.71425,1.01279 -1.32088,1.45004 -1.97341,3.33961 -0.65253,1.88957 -0.97583,4.30708 -1.0626,8.04543 -0.0868,3.73835 0.56981,9.20309 1.2144,14.26926 0.64459,5.06617 1.59669,10.6719 2.73241,16.09087 1.13572,5.41897 2.87881,11.66461 4.09862,16.39447 1.21981,4.72986 2.19491,7.76671 3.18781,11.99225 0.9929,4.22554 1.97121,8.8272 2.73242,13.35845 0.76121,4.53125 1.31724,9.28402 1.8216,13.81386 0.50436,4.52984 0.87235,5.8176 1.21441,13.35846 0.34206,7.54086 0,20.59428 0,31.87813 0,11.28385 -0.89366,24.91613 0,35.82495 0.89366,10.90882 3.03816,21.82423 4.85762,29.44932 1.81946,7.62509 3.56299,12.08239 5.16122,16.39447 1.59823,4.31208 2.68847,6.94258 4.09862,9.56344 1.41015,2.62086 2.34298,4.04446 4.09861,6.22382 1.75563,2.17936 4.29033,5.03128 6.52743,6.67923 2.2371,1.64795 4.01671,2.70998 6.52743,3.33962 2.51072,0.62964 5.36234,0.73844 8.19723,0.1518 2.83489,-0.58664 5.65436,-2.05274 8.02702,-3.25832 2.37266,-1.20558 3.25225,-1.64078 6.24224,-3.87631 2.98999,-2.23553 8.36628,-6.94414 11.23325,-10.01884 2.86697,-3.0747 5.19276,-4.67524 7.74183,-7.89364 2.54906,-3.2184 4.79188,-7.32958 7.59003,-11.38504 2.79815,-4.05546 4.48567,-7.52325 7.59003,-13.05486 3.10436,-5.53161 8.25326,-15.36784 10.92965,-20.18948 2.67639,-4.82164 2.42496,-5.38985 5.00942,-8.80444 2.58446,-3.41459 7.30378,-8.28762 10.92964,-11.08145 3.62586,-2.79383 6.45107,-4.07145 10.32245,-5.92022 3.87138,-1.84877 9.33047,-3.93331 12.90305,-5.00942 3.57258,-1.07611 5.26116,-1.47216 7.74184,-1.97341 2.48067,-0.50126 3.89074,-1.21351 9.10803,-1.6698 5.21729,-0.45629 15.94845,-0.79987 22.16289,0.15179 6.21444,0.95166 10.57861,2.86341 14.87647,4.55402 4.29786,1.69061 7.34615,2.99051 10.92964,5.31303 3.58349,2.32252 7.02644,4.96434 10.32244,8.65263 3.296,3.68829 6.49785,9.23632 8.95624,13.51026 2.45839,4.27394 4.31173,8.08094 5.92023,11.99225 1.6085,3.91131 2.80894,7.55462 3.79501,11.38504 0.98607,3.83042 1.74706,7.6772 2.12521,11.53685 0.37815,3.85965 0.51317,7.97466 0.1518,11.53685 -0.36137,3.56219 -1.26084,6.57439 -2.12521,9.71524 -0.86437,3.14085 -1.87077,6.42549 -3.03601,9.10804 -1.16524,2.68255 -2.49606,4.8591 -3.79502,6.98283 -1.29896,2.12373 -2.05629,3.33282 -3.94681,5.76842 -1.89052,2.4356 -4.90393,5.91602 -7.59003,8.65264 -2.6861,2.73662 -5.55554,5.41282 -8.50084,7.74183 -2.9453,2.32901 -5.88291,4.41889 -9.10804,6.22383 -3.22513,1.80494 -7.06696,3.4139 -10.17064,4.55402 -3.10368,1.14012 -5.60722,1.85242 -8.34903,2.42881 -2.74181,0.57639 -4.19195,0.86779 -8.04544,1.0626 -3.85349,0.19481 -10.23848,-0.012 -15.02826,-0.4554 -4.78978,-0.44339 -9.43665,-1.33094 -13.66206,-2.12521 -4.22541,-0.79427 -6.48607,-2.01313 -11.68865,-2.58061 -5.20258,-0.56748 -14.22165,-0.66543 -19.43048,0 -5.20883,0.66543 -7.15449,1.49149 -11.68865,3.03601 -4.53416,1.54452 -11.38981,4.40863 -15.33186,6.52743 -3.94205,2.1188 -5.61644,3.69403 -8.50083,5.61662 -2.88439,1.92259 -5.84112,3.79672 -8.80444,5.92023 -2.96332,2.12351 -5.83319,4.2328 -8.95624,6.83102 -3.12305,2.59822 -7.57768,6.26111 -9.71524,8.80444 -2.13756,2.54333 -2.91543,4.26179 -3.64321,5.76842 -0.72778,1.50663 -0.76123,1.1575 -1.06261,3.03602 -0.30138,1.87852 -0.57038,6.18183 0.1518,8.19723 0.72218,2.0154 0.92504,1.22788 2.88421,3.64322 1.95917,2.41534 5.30141,6.5645 8.95624,10.77784 3.65483,4.21334 6.36709,7.29539 13.05486,14.42106 6.68777,7.12567 20.13745,21.66924 27.32411,28.08312 7.18666,6.41388 9.91789,7.5892 14.72466,11.38505 4.80677,3.79585 7.22694,6.41364 14.11746,11.38504 6.89052,4.9714 18.67197,12.88769 27.62771,17.76068 8.95574,4.87299 18.32682,8.79915 25.80611,11.68865 7.47929,2.8895 12.49098,4.35113 18.82328,6.07202 6.3323,1.72089 13.20305,3.07175 19.12688,4.25042 5.92383,1.17867 7.0003,2.08216 16.39447,2.88421 9.39417,0.80205 31.17186,0.54616 39.92356,-0.1518 8.7517,-0.69796 8.04562,-0.57627 12.59946,-1.21441 4.55384,-0.63813 8.42465,-1.46901 14.72466,-2.58061 6.30001,-1.1116 15.22874,-2.5583 23.07369,-4.09861 7.84495,-1.54031 17.83813,-3.81298 23.9845,-5.16122 6.14637,-1.34824 3.89356,-0.66047 12.90306,-2.88422 9.0095,-2.22375 32.71997,-8.49717 40.98617,-11.08144 8.2662,-2.58427 2.10214,-0.70241 8.95623,-3.18782 6.85409,-2.48541 20.45409,-7.55432 32.1177,-11.86204 11.66361,-4.30772 25.48651,-9.41294 37.86393,-13.9843 12.37742,-4.57136 24.63632,-9.09894 36.40061,-13.44385 11.76429,-4.34491 18.5205,-8.04327 34.18515,-12.62562 15.66465,-4.58235 47.47064,-9.85642 67.85488,-10.92965 13.74459,-0.7004 36.95709,-0.74849 50.85319,-0.3036 13.8961,0.44489 23.7839,1.53714 32.4854,2.27701 8.7015,0.73987 13.2571,1.28976 19.734,1.97341 6.4769,0.68365 12.2701,1.31871 19.1269,2.12521 6.8568,0.8065 13.9631,1.60514 22.0111,2.73241 8.048,1.12727 19.0796,2.85915 26.2615,4.09862 7.1819,1.23947 10.3741,2.01706 16.8499,3.18781 6.4758,1.17075 14.014,2.31083 22.0111,3.79502 7.9971,1.48419 15.9886,3.14193 25.9579,5.16122 9.9693,2.01929 25.0475,5.15918 33.8515,6.98283 8.804,1.82365 11.9672,2.50338 18.9751,3.94681 7.0079,1.44343 13.8819,2.37368 19.5382,3.69567 5.6563,1.32199 13.0086,1.96778 16.9906,7.42989 3.9819,5.46211 -2.6014,11.91022 -8.9949,12.49178 z"
         style="fill:#ff0000;fill-opacity:1;stroke:#ffffff;stroke-width:7.5;stroke-linecap:butt;stroke-linejoin:miter;stroke-miterlimit:4;stroke-opacity:1;stroke-dasharray:none" />
      <path
         transform="matrix(1.0836852,0,0,1.0836852,-37.586128,22.499514)"
         d="m 415.32652,104.80341 c 0,13.7493 -11.14601,24.89531 -24.89531,24.89531 -13.74929,0 -24.8953,-11.14601 -24.8953,-24.89531 0,-13.749293 11.14601,-24.8953 24.8953,-24.8953 13.7493,0 24.89531,11.146007 24.89531,24.8953 z"
         sodipodi:ry="24.895304"
         sodipodi:rx="24.895304"
         sodipodi:cy="104.80341"
         sodipodi:cx="390.43121"
         id="path3071"
         style="fill:#ffffff;fill-opacity:1;fill-rule:evenodd;stroke:none"
         sodipodi:type="arc" />
      <path
         sodipodi:type="arc"
         style="fill:#ffffff;fill-opacity:1;fill-rule:evenodd;stroke:none"
         id="path3841"
         sodipodi:cx="390.43121"
         sodipodi:cy="104.80341"
         sodipodi:rx="24.895304"
         sodipodi:ry="24.895304"
         d="m 415.32652,104.80341 c 0,13.7493 -11.14601,24.89531 -24.89531,24.89531 -13.74929,0 -24.8953,-11.14601 -24.8953,-24.89531 0,-13.749293 11.14601,-24.8953 24.8953,-24.8953 13.7493,0 24.89531,11.146007 24.89531,24.8953 z"
         transform="matrix(1.0836852,0,0,1.0836852,52.495208,71.757591)" />
    </g>
  </g>
</svg>
