# Blender v2.76 (sub 0) OBJ File: ''
# www.blender.org
mtllib flex_toe.mtl
o ShapeIndexedFaceSet
v 0.000000 0.000000 0.000000
v 0.071000 0.006468 -0.020000
v 0.060900 0.005970 -0.020000
v 0.060900 0.005970 0.020000
v 0.071000 0.006468 0.020000
v 0.050700 0.004478 -0.020000
v 0.050700 0.004478 0.020000
v 0.040500 0.002985 -0.020000
v 0.040500 0.002985 0.020000
v 0.030300 0.001490 -0.020000
v 0.030300 0.001490 0.020000
v 0.020150 0.000498 -0.020000
v 0.020150 0.000498 0.020000
v 0.010050 0.000000 -0.020000
v 0.010050 -0.000000 0.020000
v -0.000000 0.000000 -0.020000
v 0.000000 -0.000000 0.020000
v -0.010000 0.000498 -0.020000
v -0.010000 0.000498 0.020000
v -0.019950 0.002040 -0.020000
v -0.019950 0.002040 0.020000
v 0.071000 0.011956 -0.020000
v 0.060900 0.011458 -0.020000
v 0.060900 0.011458 0.020000
v 0.071000 0.011956 0.020000
v 0.050700 0.009966 -0.020000
v 0.050700 0.009966 0.020000
v 0.040500 0.008473 -0.020000
v 0.040500 0.008473 0.020000
v 0.030300 0.006354 -0.020000
v 0.030300 0.006354 0.020000
v 0.020150 0.004614 -0.020000
v 0.020150 0.004614 0.020000
v 0.010050 0.004116 -0.020000
v 0.010050 0.004116 0.020000
v -0.000000 0.003991 -0.020000
v 0.000000 0.003991 0.020000
v -0.010000 0.003865 -0.020000
v -0.010000 0.003865 0.020000
v -0.019950 0.005407 -0.020000
v -0.019950 0.005407 0.020000
vn 0.049200 -0.998800 -0.000000
vn 0.144700 -0.989500 -0.000000
vn 0.144800 -0.989500 -0.000000
vn 0.145000 -0.989400 -0.000000
vn 0.097300 -0.995300 -0.000000
vn 0.000000 -1.000000 -0.000000
vn -0.049700 -0.998800 -0.000000
vn -0.153100 -0.988200 -0.000000
vn -0.049200 0.998800 0.000000
vn -0.144700 0.989500 0.000000
vn -0.144800 0.989500 0.000000
vn -0.203400 0.979100 0.000000
vn -0.169000 0.985600 0.000000
vn -0.012400 0.999900 0.000000
vn -0.012600 0.999900 0.000000
vn 0.153100 0.988200 0.000000
vn -0.000000 0.000000 1.000000
vn 0.000000 0.000000 -1.000000
vn -1.000000 0.000000 0.000000
vn 1.000000 0.000000 0.000000
usemtl Shape.009
s off
f 2//1 4//1 3//1
f 4//1 2//1 5//1
f 3//2 7//2 6//2
f 7//2 3//2 4//2
f 6//3 9//3 8//3
f 9//3 6//3 7//3
f 8//4 11//4 10//4
f 11//4 8//4 9//4
f 10//5 13//5 12//5
f 13//5 10//5 11//5
f 12//1 15//1 14//1
f 15//1 12//1 13//1
f 14//6 17//6 16//6
f 17//6 14//6 15//6
f 16//7 19//7 18//7
f 19//7 16//7 17//7
f 18//8 21//8 20//8
f 21//8 18//8 19//8
f 22//9 23//9 24//9
f 24//9 25//9 22//9
f 23//10 26//10 27//10
f 27//10 24//10 23//10
f 26//11 28//11 29//11
f 29//11 27//11 26//11
f 28//12 30//12 31//12
f 31//12 29//12 28//12
f 30//13 32//13 33//13
f 33//13 31//13 30//13
f 32//9 34//9 35//9
f 35//9 33//9 32//9
f 34//14 36//14 37//14
f 37//14 35//14 34//14
f 36//15 38//15 39//15
f 39//15 37//15 36//15
f 38//16 40//16 41//16
f 41//16 39//16 38//16
f 4//17 5//17 25//17
f 13//17 11//17 31//17
f 7//17 4//17 24//17
f 2//18 3//18 22//18
f 8//18 10//18 28//18
f 11//17 9//17 29//17
f 16//18 18//18 38//18
f 21//17 19//17 41//17
f 14//18 16//18 34//18
f 20//19 21//19 40//19
f 19//17 17//17 39//17
f 3//18 6//18 23//18
f 9//17 7//17 27//17
f 10//18 12//18 30//18
f 18//18 20//18 40//18
f 6//18 8//18 26//18
f 5//20 2//20 25//20
f 15//17 13//17 33//17
f 12//18 14//18 32//18
f 17//17 15//17 35//17
f 24//17 4//17 25//17
f 33//17 13//17 31//17
f 27//17 7//17 24//17
f 3//18 23//18 22//18
f 10//18 30//18 28//18
f 31//17 11//17 29//17
f 36//18 16//18 38//18
f 19//17 39//17 41//17
f 16//18 36//18 34//18
f 21//19 41//19 40//19
f 17//17 37//17 39//17
f 6//18 26//18 23//18
f 29//17 9//17 27//17
f 12//18 32//18 30//18
f 38//18 18//18 40//18
f 8//18 28//18 26//18
f 2//20 22//20 25//20
f 35//17 15//17 33//17
f 14//18 34//18 32//18
f 37//17 17//17 35//17
