# Blender v2.76 (sub 0) OBJ File: ''
# www.blender.org
mtllib flex_toe_not_inclined.mtl
o ShapeIndexedFaceSet
v 0.000000 0.000000 0.000000
v 0.080000 0.014000 -0.020000
v 0.070000 0.012500 -0.020000
v 0.070000 0.012500 0.020000
v 0.080000 0.014000 0.020000
v 0.060000 0.010000 -0.020000
v 0.060000 0.010000 0.020000
v 0.050000 0.007500 -0.020000
v 0.050000 0.007500 0.020000
v 0.040000 0.005000 -0.020000
v 0.040000 0.005000 0.020000
v 0.030000 0.003000 -0.020000
v 0.030000 0.003000 0.020000
v 0.020000 0.001500 -0.020000
v 0.020000 0.001500 0.020000
v 0.010000 0.000500 -0.020000
v 0.010000 0.000500 0.020000
v -0.000000 0.000000 -0.020000
v 0.000000 -0.000000 0.020000
v -0.010000 0.000000 -0.020000
v -0.010000 -0.000000 0.020000
v 0.080000 0.019855 -0.020000
v 0.070000 0.018355 -0.020000
v 0.070000 0.018355 0.020000
v 0.080000 0.019855 0.020000
v 0.060000 0.015855 -0.020000
v 0.060000 0.015855 0.020000
v 0.050000 0.013355 -0.020000
v 0.050000 0.013355 0.020000
v 0.040000 0.010855 -0.020000
v 0.040000 0.010855 0.020000
v 0.030000 0.008162 -0.020000
v 0.030000 0.008162 0.020000
v 0.020000 0.005709 -0.020000
v 0.020000 0.005709 0.020000
v 0.010000 0.004709 -0.020000
v 0.010000 0.004709 0.020000
v -0.000000 0.004209 -0.020000
v 0.000000 0.004209 0.020000
v -0.010000 0.004209 -0.020000
v -0.010000 0.004209 0.020000
vn 0.148300 -0.988900 0.000000
vn 0.242500 -0.970100 0.000000
vn 0.196100 -0.980600 -0.000000
vn 0.099500 -0.995000 -0.000000
vn 0.049900 -0.998800 -0.000000
vn 0.000000 -1.000000 -0.000000
vn -0.148300 0.988900 0.000000
vn -0.242500 0.970100 0.000000
vn -0.260000 0.965600 0.000000
vn -0.238200 0.971200 0.000000
vn -0.099500 0.995000 0.000000
vn -0.049900 0.998800 0.000000
vn 0.000000 1.000000 0.000000
vn 0.000000 0.000000 1.000000
vn 0.000000 0.000000 -1.000000
vn 1.000000 0.000000 0.000000
vn -1.000000 -0.000000 0.000000
usemtl Shape.010
s off
f 2//1 4//1 3//1
f 4//1 2//1 5//1
f 3//2 7//2 6//2
f 7//2 3//2 4//2
f 6//2 9//2 8//2
f 9//2 6//2 7//2
f 8//2 11//2 10//2
f 11//2 8//2 9//2
f 10//3 13//3 12//3
f 13//3 10//3 11//3
f 12//1 15//1 14//1
f 15//1 12//1 13//1
f 14//4 17//4 16//4
f 17//4 14//4 15//4
f 16//5 19//5 18//5
f 19//5 16//5 17//5
f 18//6 21//6 20//6
f 21//6 18//6 19//6
f 22//7 23//7 24//7
f 24//7 25//7 22//7
f 23//8 26//8 27//8
f 27//8 24//8 23//8
f 26//8 28//8 29//8
f 29//8 27//8 26//8
f 28//8 30//8 31//8
f 31//8 29//8 28//8
f 30//9 32//9 33//9
f 33//9 31//9 30//9
f 32//10 34//10 35//10
f 35//10 33//10 32//10
f 34//11 36//11 37//11
f 37//11 35//11 34//11
f 36//12 38//12 39//12
f 39//12 37//12 36//12
f 38//13 40//13 41//13
f 41//13 39//13 38//13
f 19//14 17//14 37//14
f 3//15 6//15 23//15
f 9//14 7//14 27//14
f 10//15 12//15 30//15
f 18//15 20//15 38//15
f 6//15 8//15 26//15
f 5//16 2//16 25//16
f 15//14 13//14 33//14
f 12//15 14//15 32//15
f 17//14 15//14 35//14
f 4//14 5//14 25//14
f 13//14 11//14 31//14
f 7//14 4//14 24//14
f 2//15 3//15 22//15
f 8//15 10//15 28//15
f 11//14 9//14 29//14
f 16//15 18//15 36//15
f 21//14 19//14 41//14
f 14//15 16//15 34//15
f 20//17 21//17 40//17
f 39//14 19//14 37//14
f 6//15 26//15 23//15
f 29//14 9//14 27//14
f 12//15 32//15 30//15
f 20//15 40//15 38//15
f 8//15 28//15 26//15
f 2//16 22//16 25//16
f 35//14 15//14 33//14
f 14//15 34//15 32//15
f 37//14 17//14 35//14
f 24//14 4//14 25//14
f 33//14 13//14 31//14
f 27//14 7//14 24//14
f 3//15 23//15 22//15
f 10//15 30//15 28//15
f 31//14 11//14 29//14
f 18//15 38//15 36//15
f 19//14 39//14 41//14
f 16//15 36//15 34//15
f 21//17 41//17 40//17
