# Blender v2.76 (sub 0) OBJ File: ''
# www.blender.org
mtllib flex_heel.mtl
o ShapeIndexedFaceSet
v 0.000000 0.000000 0.000000
v 0.010050 0.000000 -0.020000
v -0.000000 0.000000 -0.020000
v 0.000000 -0.000000 0.020000
v 0.010050 -0.000000 0.020000
v -0.009900 0.001493 -0.020000
v -0.009900 0.001493 0.020000
v -0.019702 0.003980 -0.020000
v -0.019702 0.003980 0.020000
v -0.029600 0.005470 -0.020000
v -0.029600 0.005470 0.020000
v -0.039600 0.005970 -0.020000
v -0.039600 0.005970 0.020000
v 0.010050 0.003464 -0.020000
v -0.000000 0.004042 -0.020000
v 0.000000 0.004042 0.020000
v 0.010050 0.003464 0.020000
v -0.009900 0.005535 -0.020000
v -0.009900 0.005535 0.020000
v -0.019702 0.009321 -0.020000
v -0.019702 0.009321 0.020000
v -0.029600 0.011099 -0.020000
v -0.029600 0.011099 0.020000
v -0.039600 0.011599 -0.020000
v -0.039600 0.011599 0.020000
vn 0.000000 -1.000000 -0.000000
vn -0.149100 -0.988800 -0.000000
vn -0.245900 -0.969300 -0.000000
vn -0.148900 -0.988900 -0.000000
vn -0.049900 -0.998800 -0.000000
vn 0.057400 0.998400 0.000000
vn 0.149100 0.988800 0.000000
vn 0.360300 0.932800 0.000000
vn 0.176800 0.984200 0.000000
vn 0.049900 0.998800 0.000000
vn 0.000000 0.000000 1.000000
vn 0.000000 0.000000 -1.000000
vn 1.000000 0.000000 -0.000000
vn -1.000000 0.000000 0.000000
usemtl Shape.006
s off
f 2//1 4//1 3//1
f 4//1 2//1 5//1
f 3//2 7//2 6//2
f 7//2 3//2 4//2
f 6//3 9//3 8//3
f 9//3 6//3 7//3
f 8//4 11//4 10//4
f 11//4 8//4 9//4
f 10//5 13//5 12//5
f 13//5 10//5 11//5
f 14//6 15//6 16//6
f 16//6 17//6 14//6
f 15//7 18//7 19//7
f 19//7 16//7 15//7
f 18//8 20//8 21//8
f 21//8 19//8 18//8
f 20//9 22//9 23//9
f 23//9 21//9 20//9
f 22//10 24//10 25//10
f 25//10 23//10 22//10
f 13//11 11//11 25//11
f 2//12 3//12 15//12
f 4//11 5//11 16//11
f 8//12 10//12 22//12
f 11//11 9//11 23//11
f 5//13 2//13 17//13
f 6//12 8//12 20//12
f 7//11 4//11 19//11
f 9//11 7//11 21//11
f 3//12 6//12 18//12
f 10//12 12//12 24//12
f 12//14 13//14 24//14
f 11//11 23//11 25//11
f 14//12 2//12 15//12
f 5//11 17//11 16//11
f 20//12 8//12 22//12
f 9//11 21//11 23//11
f 2//13 14//13 17//13
f 18//12 6//12 20//12
f 4//11 16//11 19//11
f 7//11 19//11 21//11
f 15//12 3//12 18//12
f 22//12 10//12 24//12
f 13//14 25//14 24//14
