# Blender v2.76 (sub 0) OBJ File: ''
# www.blender.org
mtllib rigid_flex_shape.mtl
o ShapeIndexedFaceSet
v 0.000000 0.000000 0.000000
v 0.025720 0.000000 -0.020000
v 0.015670 0.000000 -0.020000
v 0.015670 -0.000000 0.020000
v 0.025720 -0.000000 0.020000
v 0.005770 0.001490 -0.020000
v 0.005770 0.001490 0.020000
v -0.004030 0.003980 -0.020000
v -0.004030 0.003980 0.020000
v -0.013930 0.005470 -0.020000
v -0.013930 0.005470 0.020000
v -0.023930 0.005970 -0.020000
v -0.023930 0.005970 0.020000
v -0.033900 0.006470 -0.020000
v -0.033900 0.006470 0.020000
v -0.044000 0.005970 -0.020000
v -0.044000 0.005970 0.020000
v -0.054200 0.004480 -0.020000
v -0.054200 0.004480 0.020000
v -0.064400 0.002990 -0.020000
v -0.064400 0.002990 0.020000
v -0.074600 0.001500 -0.020000
v -0.074600 0.001500 0.020000
v -0.084750 0.000498 -0.020000
v -0.084750 0.000498 0.020000
v -0.094900 0.000000 -0.020000
v -0.094900 -0.000000 0.020000
v -0.104900 0.000000 -0.020000
v -0.104900 -0.000000 0.020000
v -0.114900 0.000498 -0.020000
v -0.114900 0.000498 0.020000
v -0.124850 0.002040 -0.020000
v -0.124850 0.002040 0.020000
v 0.025720 0.014276 -0.020000
v 0.015670 0.014276 -0.020000
v 0.015670 0.014276 0.020000
v 0.025720 0.014276 0.020000
v 0.005770 0.015766 -0.020000
v 0.005770 0.015766 0.020000
v -0.004030 0.018256 -0.020000
v -0.004030 0.018256 0.020000
v -0.013930 0.019746 -0.020000
v -0.013930 0.019746 0.020000
v -0.023930 0.020246 -0.020000
v -0.023930 0.020246 0.020000
v -0.033900 0.020746 -0.020000
v -0.033900 0.020746 0.020000
v -0.044000 0.020246 -0.020000
v -0.044000 0.020246 0.020000
v -0.054200 0.018756 -0.020000
v -0.054200 0.018756 0.020000
v -0.064400 0.017266 -0.020000
v -0.064400 0.017266 0.020000
v -0.074600 0.015776 -0.020000
v -0.074600 0.015776 0.020000
v -0.084750 0.014774 -0.020000
v -0.084750 0.014774 0.020000
v -0.094900 0.014276 -0.020000
v -0.094900 0.014276 0.020000
v -0.104900 0.014276 -0.020000
v -0.104900 0.014276 0.020000
v -0.114900 0.014774 -0.020000
v -0.114900 0.014774 0.020000
v -0.124850 0.016316 -0.020000
v -0.124850 0.016316 0.020000
vn 0.000000 -1.000000 -0.000000
vn -0.148800 -0.988900 -0.000000
vn -0.246300 -0.969200 -0.000000
vn -0.049900 -0.998800 -0.000000
vn -0.050100 -0.998700 -0.000000
vn 0.049400 -0.998800 -0.000000
vn 0.144500 -0.989500 -0.000000
vn 0.098200 -0.995200 -0.000000
vn 0.049000 -0.998800 -0.000000
vn -0.049700 -0.998800 -0.000000
vn -0.153100 -0.988200 -0.000000
vn 0.000000 1.000000 0.000000
vn 0.148800 0.988900 -0.000000
vn 0.246300 0.969200 0.000000
vn 0.049900 0.998800 -0.000000
vn 0.050100 0.998700 0.000000
vn -0.049400 0.998800 0.000000
vn -0.144500 0.989500 0.000000
vn -0.098200 0.995200 0.000000
vn -0.049000 0.998800 0.000000
vn 0.049700 0.998800 0.000000
vn 0.153100 0.988200 0.000000
vn 0.000000 0.000000 1.000000
vn -0.000000 0.000000 -1.000000
vn 1.000000 0.000000 -0.000000
vn -1.000000 0.000000 0.000000
usemtl Shape.011
s off
f 2//1 4//1 3//1
f 4//1 2//1 5//1
f 3//2 7//2 6//2
f 7//2 3//2 4//2
f 6//3 9//3 8//3
f 9//3 6//3 7//3
f 8//2 11//2 10//2
f 11//2 8//2 9//2
f 10//4 13//4 12//4
f 13//4 10//4 11//4
f 12//5 15//5 14//5
f 15//5 12//5 13//5
f 14//6 17//6 16//6
f 17//6 14//6 15//6
f 16//7 19//7 18//7
f 19//7 16//7 17//7
f 18//7 21//7 20//7
f 21//7 18//7 19//7
f 20//7 23//7 22//7
f 23//7 20//7 21//7
f 22//8 25//8 24//8
f 25//8 22//8 23//8
f 24//9 27//9 26//9
f 27//9 24//9 25//9
f 26//1 29//1 28//1
f 29//1 26//1 27//1
f 28//10 31//10 30//10
f 31//10 28//10 29//10
f 30//11 33//11 32//11
f 33//11 30//11 31//11
f 34//12 35//12 36//12
f 36//12 37//12 34//12
f 35//13 38//13 39//13
f 39//13 36//13 35//13
f 38//14 40//14 41//14
f 41//14 39//14 38//14
f 40//13 42//13 43//13
f 43//13 41//13 40//13
f 42//15 44//15 45//15
f 45//15 43//15 42//15
f 44//16 46//16 47//16
f 47//16 45//16 44//16
f 46//17 48//17 49//17
f 49//17 47//17 46//17
f 48//18 50//18 51//18
f 51//18 49//18 48//18
f 50//18 52//18 53//18
f 53//18 51//18 50//18
f 52//18 54//18 55//18
f 55//18 53//18 52//18
f 54//19 56//19 57//19
f 57//19 55//19 54//19
f 56//20 58//20 59//20
f 59//20 57//20 56//20
f 58//12 60//12 61//12
f 61//12 59//12 58//12
f 60//21 62//21 63//21
f 63//21 61//21 60//21
f 62//22 64//22 65//22
f 65//22 63//22 62//22
f 29//23 27//23 61//23
f 3//24 6//24 38//24
f 30//24 32//24 64//24
f 2//24 3//24 34//24
f 22//24 24//24 54//24
f 7//23 4//23 39//23
f 15//23 13//23 47//23
f 17//23 15//23 47//23
f 18//24 20//24 50//24
f 14//24 16//24 46//24
f 25//23 23//23 55//23
f 6//24 8//24 40//24
f 5//25 2//25 37//25
f 21//23 19//23 51//23
f 33//23 31//23 65//23
f 13//23 11//23 45//23
f 8//24 10//24 42//24
f 9//23 7//23 41//23
f 16//24 18//24 48//24
f 27//23 25//23 57//23
f 26//24 28//24 58//24
f 31//23 29//23 63//23
f 11//23 9//23 43//23
f 23//23 21//23 53//23
f 12//24 14//24 46//24
f 28//24 30//24 62//24
f 20//24 22//24 52//24
f 10//24 12//24 44//24
f 4//23 5//23 36//23
f 19//23 17//23 49//23
f 24//24 26//24 56//24
f 32//26 33//26 64//26
f 27//23 59//23 61//23
f 35//24 3//24 38//24
f 62//24 30//24 64//24
f 3//24 35//24 34//24
f 24//24 56//24 54//24
f 4//23 36//23 39//23
f 13//23 45//23 47//23
f 49//23 17//23 47//23
f 20//24 52//24 50//24
f 16//24 48//24 46//24
f 57//23 25//23 55//23
f 38//24 6//24 40//24
f 2//25 34//25 37//25
f 53//23 21//23 51//23
f 31//23 63//23 65//23
f 11//23 43//23 45//23
f 40//24 8//24 42//24
f 7//23 39//23 41//23
f 18//24 50//24 48//24
f 59//23 27//23 57//23
f 28//24 60//24 58//24
f 29//23 61//23 63//23
f 9//23 41//23 43//23
f 55//23 23//23 53//23
f 44//24 12//24 46//24
f 60//24 28//24 62//24
f 22//24 54//24 52//24
f 42//24 10//24 44//24
f 5//23 37//23 36//23
f 51//23 19//23 49//23
f 26//24 58//24 56//24
f 33//26 65//26 64//26
